<?xml version="1.0" encoding="UTF-8" standalone="no"?>
<!-- Created with Inkscape (http://www.inkscape.org/) -->

<svg
   width="210mm"
   height="297mm"
   viewBox="0 0 210 297"
   version="1.1"
   id="svg5"
   sodipodi:docname="404.svg"
   inkscape:version="1.1.2 (b8e25be833, 2022-02-05)"
   xmlns:inkscape="http://www.inkscape.org/namespaces/inkscape"
   xmlns:sodipodi="http://sodipodi.sourceforge.net/DTD/sodipodi-0.dtd"
   xmlns="http://www.w3.org/2000/svg"
   xmlns:svg="http://www.w3.org/2000/svg">
  <sodipodi:namedview
     id="namedview7"
     pagecolor="#ffffff"
     bordercolor="#666666"
     borderopacity="1.0"
     inkscape:pageshadow="2"
     inkscape:pageopacity="0.0"
     inkscape:pagecheckerboard="0"
     inkscape:document-units="mm"
     showgrid="false"
     inkscape:zoom="0.91717543"
     inkscape:cx="232.7799"
     inkscape:cy="698.88484"
     inkscape:window-width="1920"
     inkscape:window-height="1009"
     inkscape:window-x="-8"
     inkscape:window-y="-8"
     inkscape:window-maximized="1"
     inkscape:current-layer="layer1" />
  <defs
     id="defs2" />
  <g
     inkscape:label="圖層 1"
     inkscape:groupmode="layer"
     id="layer1">
    <path
       style="fill:#000000;stroke-width:0.176389"
       d="m 75.73317,210.30438 c -0.443475,-0.46618 -1.153313,-1.79145 -2.291068,-4.27743 -4.399791,-9.61346 -6.987894,-14.29211 -10.032696,-18.13664 -0.538642,-0.68012 -0.700234,-1.00706 -0.564727,-1.14256 0.301728,-0.30173 0.662939,0.022 2.356505,2.11178 2.74977,3.39314 4.724479,6.72495 7.436343,12.54693 3.224382,6.92228 3.748206,7.94853 4.212356,8.25265 0.545232,0.35725 0.601057,0.88135 0.12123,1.13815 -0.493982,0.26437 -0.531985,0.24924 -1.237943,-0.49288 z m -31.554963,0.10277 c -0.316341,-0.31634 -0.243277,-0.71662 0.251416,-1.3774 0.250155,-0.33415 1.196672,-1.73358 2.103374,-3.10987 0.906701,-1.37628 3.108703,-4.59097 4.893338,-7.14375 1.784634,-2.55278 3.906899,-5.6336 4.716143,-6.84628 1.802206,-2.70065 2.835094,-4.08938 3.772812,-5.07261 l 0.716324,-0.75108 0.151832,-5.8635 c 0.206779,-7.98546 0.04748,-20.59805 -0.262583,-20.78968 -0.125694,-0.0777 -3.6817,-0.14502 -7.902232,-0.14963 -8.778907,-0.01 -9.878558,-0.0718 -9.878558,-0.55897 0,-0.18063 0.01984,-0.34221 0.0441,-0.35907 0.02425,-0.0169 4.052534,-0.0764 8.951736,-0.13229 l 8.907638,-0.10164 -0.06249,-4.76599 c -0.07329,-5.59018 0.0372,-7.14026 0.508957,-7.14026 0.401354,0 0.478189,0.8966 0.597943,6.9774 0.04787,2.43086 0.139119,4.55546 0.202769,4.72133 0.10604,0.27634 0.449949,0.29329 4.108577,0.20257 5.689886,-0.1411 7.292033,-0.39038 11.545768,-1.79646 1.779723,-0.58829 1.928265,-0.61106 2.201871,-0.33745 0.224273,0.22427 0.248733,0.36534 0.103819,0.59877 -0.37201,0.59922 -5.559601,2.14815 -8.38509,2.50365 -0.810435,0.10196 -3.160612,0.18748 -5.222614,0.19003 -2.062004,0.003 -3.874096,0.0526 -4.026872,0.11124 -0.24786,0.0951 -0.266132,0.70712 -0.16967,5.68269 0.145184,7.48855 -0.103973,20.96361 -0.397344,21.48953 -0.120028,0.21517 -0.424992,0.61204 -0.677699,0.88194 -0.781473,0.83465 -2.407015,3.03638 -3.943597,5.34143 -0.808386,1.21267 -2.940349,4.30768 -4.737698,6.87779 -1.797348,2.57011 -3.940238,5.70542 -4.761979,6.96736 -2.309029,3.54595 -2.896545,4.20365 -3.349994,3.7502 z m 70.793113,-24.30901 c -2.612,-0.11428 -3.31297,-0.21277 -5.43683,-0.7639 -1.34103,-0.34799 -2.92853,-0.84125 -3.52778,-1.09613 -0.59926,-0.25488 -1.6932,-0.68038 -2.43098,-0.94554 -1.75576,-0.63103 -3.16631,-1.58496 -4.225353,-2.85753 -2.059354,-2.47457 -2.317688,-3.56304 -2.915632,-12.2848 -0.35501,-5.17826 -0.517351,-29.51663 -0.219058,-32.84122 0.18714,-2.08573 0.285556,-18.44068 0.112011,-18.61423 -0.04381,-0.0438 -1.112944,-0.19433 -2.375847,-0.33449 -2.468681,-0.27399 -4.867976,-0.80318 -5.871946,-1.29511 -0.817233,-0.40044 -1.10648,-1.14995 -0.616541,-1.59761 0.189237,-0.17291 0.66157,-0.41972 1.049625,-0.54848 0.78125,-0.25921 1.543108,-0.78009 4.409722,-3.01491 2.38527,-1.85956 2.297813,-1.80755 2.542872,-1.51227 0.157113,0.18931 0.09381,0.371 -0.286909,0.82346 -0.737424,0.87638 -4.256511,3.83558 -5.22614,4.39466 -0.469429,0.27068 -0.776866,0.5395 -0.683193,0.5974 0.396618,0.24512 2.577416,0.66687 4.711704,0.91121 2.573903,0.29467 3.37832,0.50443 3.581846,0.93401 0.07675,0.16201 0.06435,4.81893 -0.02756,10.34872 -0.09192,5.52979 -0.173885,16.20573 -0.182154,23.72431 -0.01265,11.49717 0.03502,14.35707 0.299835,17.99166 0.389544,5.34646 0.732308,8.04004 1.169541,9.19074 0.818034,2.1529 3.180557,4.33724 5.212657,4.81951 0.29104,0.0691 1.12448,0.39287 1.85208,0.71954 0.72761,0.32668 2.39448,0.87982 3.70417,1.22922 2.18661,0.58334 2.68402,0.64904 6.08542,0.80381 4.3816,0.19937 12.74586,0.19246 15.61041,-0.0129 2.47873,-0.1777 4.78138,-0.56193 12.08264,-2.01618 3.63455,-0.72392 7.46591,-1.35227 10.75972,-1.76462 6.9871,-0.87471 11.75523,-1.85565 14.13999,-2.909 1.2059,-0.53264 1.96548,-1.33139 2.26767,-2.38463 0.35158,-1.22527 0.75119,-4.05607 0.88431,-6.26438 0.14815,-2.45728 0.91123,-9.86721 1.24427,-12.08263 1.32886,-8.8394 1.59475,-14.48962 1.33223,-28.31042 -0.21407,-11.26936 -0.34426,-13.59257 -0.92913,-16.58056 -0.21043,-1.07506 -0.42334,-3.14711 -0.50746,-4.93889 -0.12047,-2.56647 -0.21731,-3.29493 -0.57449,-4.32152 -0.23626,-0.6791 -0.48684,-1.55223 -0.55681,-1.94028 -0.07,-0.38806 -0.32976,-1.361307 -0.57732,-2.162779 -0.35624,-1.153261 -0.52843,-1.473416 -0.82557,-1.534845 -0.2065,-0.04269 -1.08984,-0.237172 -1.96296,-0.432181 -0.87313,-0.195008 -2.81782,-0.514182 -4.32153,-0.709274 -4.81813,-0.625104 -8.24657,-0.766789 -15.61042,-0.645116 -3.82466,0.06319 -12.24412,0.01612 -18.9618,-0.105997 -6.64545,-0.120812 -14.62264,-0.224097 -17.72709,-0.229522 -3.125,-0.0055 -6.2743,-0.09757 -7.05555,-0.206367 -0.77611,-0.108077 -2.68111,-0.185485 -4.23333,-0.172018 l -2.822223,0.02449 -0.04255,6.783129 c -0.04456,7.10274 -0.0803,7.41847 -0.808075,7.1392 -0.355545,-0.13644 -0.326115,0.50021 -0.364784,-7.89094 -0.02182,-4.735353 0.02735,-6.893862 0.159543,-7.003573 0.350208,-0.290648 6.709559,-0.330641 8.993369,-0.05656 1.4845,0.178157 3.51271,0.238011 6.79098,0.20041 2.57086,-0.02949 7.80961,0.05787 11.64166,0.194126 5.08439,0.180785 10.3758,0.21988 19.57917,0.144657 13.02551,-0.106463 15.55388,-0.03431 20.46111,0.583919 3.09499,0.389919 6.77585,1.157702 7.35496,1.534159 0.26927,0.175052 0.55194,0.780992 0.92604,1.985121 0.29614,0.953237 0.53844,1.858711 0.53844,2.012161 0,0.15345 0.24836,1.05385 0.55191,2.0009 0.49217,1.53558 0.56693,2.05592 0.6907,4.8087 0.0858,1.90892 0.27794,3.75989 0.50341,4.8507 0.57671,2.7899 0.709,5.26536 0.9144,17.10972 0.24753,14.27262 0.0984,17.40992 -1.33304,28.04583 -0.47515,3.5304 -1.07124,9.29184 -1.241,11.99445 -0.20133,3.20559 -0.7533,6.5315 -1.24412,7.49653 -0.38605,0.759 -1.53376,1.71828 -2.63238,2.20019 -2.4878,1.09127 -7.4649,2.11914 -14.55432,3.00577 -3.02634,0.37849 -6.92252,1.01061 -9.78958,1.58826 -8.00238,1.61231 -10.58455,2.03117 -13.58195,2.2032 -3.24374,0.18617 -11.48284,0.17969 -15.875,-0.0125 z m -11.6005,-13.52697 c -0.0373,-0.0728 -0.0834,-0.39599 -0.10238,-0.7183 -0.0242,-0.41025 0.0277,-0.54755 0.17289,-0.45781 0.13669,0.0845 0.16014,0.0517 0.0688,-0.0962 -0.13487,-0.21822 0.14879,-1.85463 0.44449,-2.56419 0.15157,-0.36372 0.69109,-2.24639 0.7904,-2.75813 0.0937,-0.4828 0.50597,-1.03319 0.78787,-1.05181 0.14644,-0.01 0.0678,-0.0811 -0.17472,-0.15881 -0.24254,-0.0777 -0.3616,-0.14929 -0.26459,-0.15915 0.097,-0.01 0.19372,-0.26458 0.2149,-0.56604 0.0212,-0.30146 0.10957,-0.63865 0.19642,-0.74931 0.0868,-0.11065 0.14206,-0.38314 0.1227,-0.60553 -0.0194,-0.22239 0.0325,-0.44616 0.11515,-0.49726 0.0827,-0.0511 0.0963,-0.18029 0.0303,-0.28709 -0.0791,-0.128 -0.0115,-0.15253 0.19846,-0.072 0.26512,0.10173 0.2823,0.0786 0.10256,-0.13795 -0.29258,-0.35254 -0.0914,-0.90146 0.34237,-0.93414 0.36485,-0.0275 0.47817,0.20598 0.18726,0.38577 -0.091,0.0563 -0.13286,0.27204 -0.0929,0.47948 0.0422,0.2192 -0.0547,0.47481 -0.23133,0.6103 -0.24984,0.19163 -0.261,0.26143 -0.0627,0.39206 0.19586,0.12898 0.17215,0.22808 -0.12585,0.52608 -0.20194,0.20194 -0.29574,0.41131 -0.20844,0.46527 0.18217,0.11258 0.16823,0.79671 -0.0162,0.79671 -0.0673,0 -0.0807,0.15917 -0.0299,0.35371 0.0509,0.19455 -0.003,0.46888 -0.11989,0.60964 -0.11681,0.14075 -0.16674,0.32977 -0.11095,0.42005 0.0558,0.0903 -0.009,0.25608 -0.1448,0.36848 -0.13543,0.1124 -0.22432,0.40393 -0.19755,0.64785 0.0268,0.24392 -0.0401,0.53799 -0.1487,0.65348 -0.10856,0.11549 -0.19637,0.40842 -0.19514,0.65095 0.001,0.24254 -0.0608,0.53152 -0.1379,0.64219 -0.0771,0.11067 -0.17791,0.49627 -0.22408,0.85689 -0.0462,0.36062 -0.14165,0.74632 -0.21218,0.85712 -0.0705,0.11079 -0.13306,0.28082 -0.13895,0.37783 -0.006,0.097 -0.11977,0.15207 -0.25305,0.12234 -0.17809,-0.0397 -0.19313,0.007 -0.0567,0.17639 0.10207,0.12674 0.14701,0.48278 0.0999,0.79119 -0.064,0.41841 -0.15562,0.53393 -0.36106,0.45509 -0.18149,-0.0696 -0.23187,-0.0353 -0.1478,0.10071 0.0701,0.1135 0.0879,0.20636 0.0393,0.20636 -0.0485,0 -0.11873,-0.0595 -0.15605,-0.13229 z m 23.77402,-0.81914 c -0.23226,-0.23224 -0.46082,-0.38372 -0.50793,-0.33661 -0.0471,0.0471 -0.0621,-0.0605 -0.0333,-0.2392 0.0288,-0.17866 -0.0367,-0.43622 -0.14552,-0.57235 -0.13159,-0.16461 -0.19258,-1.34614 -0.18214,-3.52777 0.0213,-4.4576 0.0588,-4.7792 0.55756,-4.77941 0.47687,-1.8e-4 0.50252,0.13893 0.0882,0.47853 -0.16978,0.13916 -0.20946,0.20276 -0.0882,0.14133 0.14117,-0.0715 0.22049,0.019 0.22049,0.2515 0,0.19976 -0.0992,0.36441 -0.22049,0.36589 -0.14931,0.002 -0.13673,0.0557 0.039,0.1668 0.28105,0.17775 0.26844,0.20298 -0.25947,0.51847 -0.34743,0.20762 -0.34722,0.20932 0.0136,0.112 0.36082,-0.0973 0.36604,-0.0541 0.34593,2.8579 -0.0221,3.19882 0.0935,3.71496 0.9156,4.08955 0.32006,0.14583 0.3918,0.14219 0.2947,-0.0149 -0.0875,-0.14153 -0.0319,-0.1707 0.1743,-0.0916 0.16683,0.064 0.25783,0.0436 0.20276,-0.0455 -0.0549,-0.0889 0.0515,-0.20971 0.23645,-0.26843 0.18502,-0.0587 0.43156,-0.33654 0.54788,-0.61739 0.11633,-0.28084 0.32703,-0.55495 0.46823,-0.60913 0.14118,-0.0542 0.24024,-0.19879 0.22013,-0.32136 -0.0201,-0.12256 0.0556,-0.44629 0.16812,-0.71939 0.11257,-0.27311 0.20468,-0.57009 0.20468,-0.65997 0,-0.0899 0.15083,-0.2576 0.33517,-0.37273 0.18435,-0.11513 0.29738,-0.30783 0.25118,-0.42822 -0.0462,-0.12039 0.0414,-0.41024 0.19461,-0.6441 0.15323,-0.23386 0.23673,-0.46709 0.18553,-0.51828 -0.0512,-0.0512 0.0232,-0.18956 0.16529,-0.3075 0.1421,-0.11793 0.21343,-0.33149 0.15852,-0.47458 -0.0549,-0.14309 0.049,-0.37289 0.23098,-0.51066 0.18195,-0.13777 0.24074,-0.25302 0.13065,-0.25611 -0.25849,-0.007 0.43357,-1.94358 0.81046,-2.26765 0.1494,-0.12846 0.16924,-0.18134 0.0441,-0.11751 -0.31262,0.15943 -0.0893,-0.76513 0.29534,-1.22264 0.198,-0.23552 0.20938,-0.29451 0.0373,-0.19324 -0.17152,0.10093 -0.20714,0.08 -0.11573,-0.0678 0.10939,-0.177 0.24303,-1.04951 0.31859,-2.08033 0.0109,-0.14984 0.10963,-0.16057 0.34045,-0.037 0.26404,0.1413 0.31697,0.35454 0.28226,1.137 -0.0235,0.52969 -0.0877,0.96308 -0.1427,0.96308 -0.055,0 -0.11012,0.17859 -0.1225,0.39687 -0.0322,0.56813 -0.64832,2.53831 -1.11699,3.57188 -0.21994,0.48507 -0.38717,0.94072 -0.37159,1.01257 0.0155,0.0718 -0.20066,0.6033 -0.48051,1.18102 -0.27985,0.57772 -0.46482,1.0944 -0.41102,1.14819 0.0538,0.0538 0.008,0.0978 -0.10244,0.0978 -0.11016,0 -0.15457,0.11906 -0.0987,0.26458 0.0575,0.14984 0.004,0.26459 -0.12314,0.26459 -0.12356,0 -0.17157,0.0531 -0.10668,0.11797 0.0649,0.0649 -0.0136,0.26333 -0.17432,0.44098 -0.16076,0.17764 -0.24167,0.32299 -0.17979,0.32299 0.1235,0 -0.46355,1.09988 -0.81042,1.51835 -1.11736,1.34804 -1.94582,1.62013 -2.68432,0.88161 z m 1.4131,-0.0728 c -0.0543,-0.0543 -0.19664,-1.2e-4 -0.3163,0.12043 -0.1729,0.17421 -0.15265,0.19447 0.0987,0.0987 0.17396,-0.0662 0.27185,-0.16486 0.21756,-0.21917 z m -9.66909,-0.67325 c -0.0552,-0.0552 -0.48758,-0.0974 -0.96074,-0.0938 -0.6363,0.005 -0.99109,-0.0976 -1.36251,-0.39377 -0.46539,-0.37108 -0.50488,-0.49893 -0.53873,-1.74403 -0.0295,-1.08578 0.0171,-1.36417 0.24278,-1.45078 0.22673,-0.087 0.23447,-0.13487 0.0412,-0.25435 -0.1409,-0.0871 -0.18073,-0.24008 -0.0976,-0.37466 0.0773,-0.12512 0.15106,-0.48384 0.16385,-0.79716 0.0127,-0.31331 0.12529,-0.69259 0.24998,-0.84284 0.12469,-0.15025 0.17889,-0.35054 0.12045,-0.4451 -0.0584,-0.0946 -0.0256,-0.22178 0.073,-0.28272 0.0986,-0.0609 0.17926,-0.26486 0.17926,-0.45316 0,-0.20744 0.12166,-0.34343 0.30868,-0.34507 0.20031,-0.002 0.23688,-0.0484 0.10418,-0.13282 -0.14884,-0.0947 -0.11284,-0.3186 0.13229,-0.82255 0.18525,-0.38083 0.3368,-0.78852 0.3368,-0.90597 0,-0.11745 0.15363,-0.40093 0.3414,-0.62996 0.33434,-0.40782 0.348,-0.40952 0.66146,-0.0827 0.29638,0.30904 0.29723,0.32576 0.0113,0.22602 -0.16978,-0.0592 -0.30868,-0.0308 -0.30868,0.0632 0,0.094 0.0917,0.17086 0.20373,0.17086 0.12052,0 0.0823,0.1342 -0.0937,0.32861 -0.16357,0.18075 -0.33162,0.50635 -0.37346,0.72356 -0.0418,0.21721 -0.16499,0.5021 -0.2737,0.63309 -0.10872,0.13099 -0.22006,0.44214 -0.24742,0.69144 -0.0274,0.2493 -0.18471,0.6024 -0.34965,0.78466 -0.20008,0.22108 -0.23642,0.37063 -0.10915,0.44928 0.10491,0.0649 0.13114,0.21163 0.0583,0.3262 -0.0728,0.11456 -0.13728,0.28767 -0.14317,0.38468 -0.006,0.097 -0.12619,0.15088 -0.2673,0.1197 -0.19207,-0.0424 -0.20627,-0.005 -0.0565,0.14716 0.23366,0.23808 0.11134,0.87967 -0.16773,0.87967 -0.13266,0 -0.1303,0.0608 0.008,0.19879 0.1152,0.11519 0.14427,0.35625 0.0692,0.57326 -0.21105,0.60961 -0.0817,1.86715 0.2272,2.20845 0.21626,0.23896 0.56748,0.32071 1.42726,0.33221 0.62723,0.008 1.18702,-0.0601 1.24398,-0.1523 0.057,-0.0922 0.17512,-0.12333 0.26257,-0.0693 0.2119,0.13095 1.26381,-0.4206 1.15083,-0.60341 -0.0487,-0.0787 0.10594,-0.23166 0.34352,-0.3399 0.25388,-0.11567 0.39373,-0.29647 0.33923,-0.43851 -0.051,-0.13293 0.0299,-0.3435 0.17986,-0.46793 0.14993,-0.12444 0.27261,-0.3356 0.27261,-0.46924 0,-0.13364 0.0841,-0.24298 0.1868,-0.24298 0.10275,0 0.13943,-0.0767 0.0815,-0.17034 -0.0579,-0.0937 0.0426,-0.47072 0.22334,-0.83785 0.18075,-0.36713 0.30755,-0.88579 0.28182,-1.15258 -0.0257,-0.26678 0.0253,-0.48507 0.11348,-0.48507 0.0882,0 0.1146,-0.11906 0.0588,-0.26458 -0.0558,-0.14552 -0.0189,-0.26458 0.0821,-0.26458 0.10145,0 0.14635,-0.20528 0.10036,-0.45892 -0.0458,-0.25241 0.009,-0.56991 0.12146,-0.70556 0.11259,-0.13565 0.12903,-0.24663 0.0366,-0.24663 -0.096,0 -0.15265,-0.62489 -0.13203,-1.45521 0.0452,-1.82182 -0.13291,-2.13543 -1.22151,-2.15018 -0.42952,-0.006 -0.74415,0.0489 -0.69917,0.12171 0.045,0.0728 -0.12448,0.13229 -0.37659,0.13229 -0.25213,0 -0.77493,0.16147 -1.16178,0.35883 -0.50197,0.25608 -0.78966,0.31054 -1.00471,0.19019 -0.26406,-0.14777 -0.2469,-0.18231 0.13876,-0.2791 0.24206,-0.0608 0.57459,-0.34478 0.73896,-0.63117 0.25961,-0.45235 0.4099,-0.52521 1.14489,-0.55506 0.46533,-0.0189 1.08418,-0.0461 1.37522,-0.0606 0.62262,-0.0308 1.55665,0.38862 1.40647,0.6316 -0.0574,0.0929 -0.0257,0.16888 0.0705,0.16888 0.34934,0 0.65625,2.03108 0.33676,2.22854 -0.0733,0.0453 -0.0898,0.35618 -0.0366,0.69081 0.0688,0.43288 0.0299,0.60921 -0.13467,0.61113 -0.15701,0.002 -0.16909,0.0443 -0.0376,0.13229 0.20881,0.13961 0.2655,0.74695 0.0697,0.74695 -0.0652,0 -0.10428,0.24121 -0.0867,0.53603 0.0175,0.29482 -0.0242,0.5707 -0.0928,0.61307 -0.0686,0.0424 -0.10266,0.27741 -0.0758,0.52231 0.0269,0.24489 -0.0146,0.44526 -0.0924,0.44526 -0.0777,0 -0.13758,0.0992 -0.13309,0.22048 0.0208,0.56011 -0.0615,0.84993 -0.21454,0.75536 -0.0923,-0.0571 -0.13492,0.0642 -0.0951,0.27091 0.0396,0.20583 -0.053,0.56514 -0.20588,0.79846 -0.15289,0.23333 -0.20932,0.42676 -0.12539,0.42984 0.0839,0.003 -0.002,0.12215 -0.18982,0.26458 -0.18833,0.14244 -0.27523,0.25898 -0.19314,0.25898 0.0821,0 0.007,0.15688 -0.16627,0.34862 -0.17351,0.19174 -0.37523,0.31169 -0.44825,0.26657 -0.073,-0.0451 -0.17613,0.0838 -0.22913,0.28648 -0.053,0.20273 -0.18108,0.3162 -0.28464,0.25219 -0.10354,-0.064 -0.18826,-0.009 -0.18826,0.1219 0,0.38617 -1.20008,0.84534 -1.70635,0.65286 -0.26467,-0.10063 -0.39151,-0.10063 -0.32932,0 0.11485,0.18584 -0.15483,0.40818 -0.30861,0.25442 z m 17.29348,-1.33528 c -0.0439,-0.12672 0.0659,-0.41832 0.24418,-0.64801 0.17822,-0.22968 0.28074,-0.48765 0.22784,-0.57326 -0.0529,-0.0856 -0.007,-0.15566 0.101,-0.15566 0.10846,0 0.15154,-0.0739 0.0957,-0.1642 -0.0558,-0.0903 -0.0296,-0.20862 0.0582,-0.26291 0.0879,-0.0543 0.2144,-0.31775 0.2812,-0.58546 0.0668,-0.2677 0.25421,-0.63928 0.41642,-0.82573 0.16222,-0.18646 0.19533,-0.28075 0.0736,-0.20955 -0.12174,0.0712 -0.0237,-0.2422 0.21779,-0.69644 0.24151,-0.45424 0.40998,-0.87588 0.37433,-0.93698 -0.0356,-0.0611 0.0171,-0.30953 0.11713,-0.55206 0.20761,-0.50332 0.23528,-0.60094 0.37078,-1.30764 0.091,-0.47446 0.46422,-1.06503 0.46422,-0.73451 0,0.0798 0.13207,0.0361 0.29346,-0.097 0.2661,-0.21951 0.27376,-0.20508 0.082,0.15479 -0.11917,0.22365 -0.13767,0.39688 -0.0424,0.39688 0.093,0 0.0415,0.25563 -0.11432,0.56806 -0.15585,0.31243 -0.29192,0.7633 -0.30236,1.00194 -0.0104,0.23864 -0.11547,0.46604 -0.23336,0.50534 -0.11792,0.0393 -0.16736,0.14753 -0.10989,0.24051 0.0574,0.093 -0.002,0.29987 -0.1312,0.45976 -0.16805,0.2073 -0.17241,0.25271 -0.0152,0.15825 0.30206,-0.18147 0.27721,-0.0172 -0.0463,0.30637 -0.14676,0.14675 -0.29617,0.51901 -0.33207,0.82724 -0.0359,0.30823 -0.1738,0.62918 -0.30644,0.71322 -0.13266,0.084 -0.18501,0.15401 -0.11635,0.1555 0.0687,10e-4 -0.10317,0.53848 -0.38183,1.19332 -0.35387,0.83153 -0.61219,1.20692 -0.8565,1.24463 -0.19239,0.0297 -0.38575,-0.0497 -0.42967,-0.17638 z m 4.78362,-0.55076 c -0.0226,-0.0323 -0.13639,-0.93105 -0.16036,-1.26714 -0.007,-0.097 0.0116,-0.59318 0.0412,-1.10258 0.0296,-0.50941 0.008,-0.92613 -0.0485,-0.92604 -0.0562,8e-5 -0.091,-0.32268 -0.0772,-0.71724 0.0138,-0.39456 -0.0252,-1.10894 -0.0866,-1.5875 -0.0731,-0.5697 -0.0464,-0.87105 0.0772,-0.87281 0.10387,-10e-4 0.0795,-0.072 -0.0542,-0.15667 -0.13371,-0.0847 -0.19223,-0.23627 -0.13005,-0.33686 0.0622,-0.10059 0.0189,-0.38943 -0.0961,-0.64187 -0.15551,-0.3413 -0.15799,-0.5101 -0.01,-0.65838 0.25347,-0.25346 0.76909,0.13139 0.72974,0.54466 -0.0148,0.15492 -0.0117,0.32137 0.007,0.36987 0.15603,0.40707 0.4282,2.77198 0.37555,3.2632 -0.0208,0.19403 -0.029,0.45199 -0.0183,0.57326 0.0108,0.12127 0.0356,0.61736 0.055,1.10243 0.0195,0.48507 0.0773,0.88195 0.12855,0.88195 0.17748,0 0.67116,-0.67625 0.56857,-0.77885 -0.0567,-0.0567 0.049,-0.10936 0.23497,-0.11702 0.18595,-0.008 0.24375,-0.0523 0.12845,-0.0993 -0.14565,-0.0593 -0.0739,-0.33765 0.23502,-0.91211 0.24456,-0.45473 0.47498,-0.97471 0.51205,-1.15552 0.0371,-0.18082 0.2013,-0.42667 0.36497,-0.54634 0.21241,-0.15533 0.23853,-0.25408 0.0913,-0.34509 -0.14991,-0.0927 -0.11902,-0.25673 0.11296,-0.60019 0.34712,-0.51391 0.84125,-1.51812 0.99755,-2.02727 0.054,-0.17592 0.1801,-0.26924 0.2802,-0.20737 0.1001,0.0619 0.17063,0.0471 0.15675,-0.0329 -0.0762,-0.43875 0.0367,-0.77111 0.22287,-0.65605 0.13877,0.0858 0.16947,0.0314 0.0937,-0.16598 -0.0747,-0.19482 -0.022,-0.29351 0.15683,-0.29351 0.1482,0 0.2204,-0.0794 0.16044,-0.17639 -0.0599,-0.097 -0.0334,-0.17639 0.0589,-0.17639 0.0924,0 0.21519,-0.12319 0.27298,-0.27375 0.0717,-0.18675 0.0356,-0.23118 -0.11344,-0.13981 -0.12543,0.0769 -0.0977,-0.049 0.0651,-0.29567 0.29231,-0.44288 1.13538,-1.01902 1.52444,-1.04177 0.37177,-0.0217 0.2456,0.39527 -0.24791,0.81934 -0.25764,0.22137 -0.4133,0.40249 -0.34592,0.40249 0.0674,0 -0.0397,0.17409 -0.23791,0.38686 -0.19823,0.21277 -0.53319,0.74855 -0.74437,1.19062 -0.21117,0.44208 -0.46878,0.86209 -0.57248,0.93336 -0.10372,0.0713 -0.12363,0.13081 -0.0443,0.13229 0.0794,0.001 -0.0199,0.23324 -0.22048,0.515 -0.20065,0.28177 -0.36479,0.63427 -0.36479,0.78334 0,0.14908 -0.0807,0.3209 -0.17927,0.38184 -0.0986,0.0609 -0.1336,0.18468 -0.0778,0.27499 0.0558,0.0903 0.0175,0.1642 -0.0853,0.1642 -0.10272,0 -0.18679,0.1014 -0.18679,0.22534 0,0.12393 -0.13693,0.42084 -0.30431,0.6598 -0.16737,0.23895 -0.32859,0.59362 -0.3583,0.78815 -0.0778,0.50967 -0.98622,2.38366 -1.1555,2.38366 -0.0787,0 -0.0936,0.0799 -0.0332,0.17763 0.0604,0.0977 -0.0139,0.22508 -0.16498,0.28307 -0.15111,0.058 -0.23805,0.16479 -0.19321,0.23735 0.14781,0.23916 -0.33937,0.69642 -0.83321,0.78201 -0.26679,0.0462 -0.4953,0.0695 -0.50781,0.0517 z m 11.6947,-0.4029 c 0.038,-0.21994 -0.033,-0.31888 -0.20669,-0.28796 -0.14552,0.0259 -0.0265,-0.15391 0.26458,-0.3996 0.29105,-0.2457 0.65488,-0.56456 0.80855,-0.70858 0.15365,-0.14402 0.33135,-0.26185 0.39487,-0.26185 0.14257,0 0.77965,-0.5112 1.15404,-0.92604 0.15323,-0.16978 0.4197,-0.30868 0.59215,-0.30868 0.17248,0 0.30099,-0.0595 0.28558,-0.13229 -0.0647,-0.30578 0.26518,-0.74966 0.55717,-0.74966 0.17327,0 0.36266,-0.12409 0.42085,-0.27576 0.0582,-0.15167 0.18773,-0.22514 0.28783,-0.16328 0.1001,0.0619 0.16045,0.0471 0.13409,-0.0329 -0.0651,-0.1976 2.01168,-2.16857 2.28814,-2.17152 0.20039,-0.002 0.29594,-0.22999 0.24137,-0.57561 -0.0115,-0.0728 0.0982,-0.1323 0.2437,-0.1323 0.14552,0 0.26458,-0.0794 0.26458,-0.17634 0,-0.097 0.41672,-0.60251 0.92604,-1.12338 0.50932,-0.52086 0.95213,-1.05667 0.98404,-1.19067 0.0319,-0.134 0.17889,-0.3779 0.32667,-0.54199 0.14778,-0.1641 0.30676,-0.58082 0.35327,-0.92604 0.071,-0.5269 0.0313,-0.62769 -0.24729,-0.62769 -0.18255,0 -0.43879,-0.0992 -0.56944,-0.22048 -0.13065,-0.12127 -0.19071,-0.13614 -0.13349,-0.033 0.11255,0.20273 -1.10589,0.2099 -1.43189,0.008 -0.10095,-0.0624 -0.22707,-0.043 -0.28028,0.0431 -0.0964,0.15593 -1.05705,0.1115 -1.33756,-0.0619 -0.0811,-0.0501 -0.17406,-0.0122 -0.2066,0.0842 -0.0356,0.1054 -0.25476,0.0737 -0.54968,-0.0795 -0.26979,-0.14012 -0.60713,-0.21002 -0.74966,-0.15533 -0.14252,0.0547 -0.25913,0.007 -0.25913,-0.10624 0,-0.11311 0.0739,-0.16 0.1642,-0.10419 0.0903,0.0558 0.20597,0.0339 0.25703,-0.0487 0.0511,-0.0826 1.05239,-0.16164 2.2252,-0.17563 1.63509,-0.0195 2.10686,0.0251 2.02295,0.19142 -0.0602,0.11926 0.008,0.0732 0.15129,-0.10239 0.14537,-0.17797 0.30734,-0.24384 0.36605,-0.14885 0.0579,0.0937 0.2838,0.12438 0.502,0.0682 0.35336,-0.0911 0.37026,-0.07 0.15462,0.19295 -0.21195,0.25841 -0.19782,0.29517 0.11342,0.29517 0.57314,0 0.97407,1.46224 0.45549,1.66124 -0.14355,0.0551 -0.22096,0.16493 -0.17203,0.2441 0.0489,0.0792 -0.14482,0.36458 -0.43053,0.63425 -0.28574,0.26968 -0.48035,0.55366 -0.43251,0.63107 0.11762,0.19032 -0.34989,0.56312 -0.50795,0.40506 -0.069,-0.069 -0.073,0.0111 -0.009,0.17792 0.0808,0.21045 0.0283,0.30331 -0.17144,0.30331 -0.15829,0 -0.36092,0.17859 -0.45026,0.39687 -0.22035,0.5383 -2.27045,2.64239 -2.8686,2.94415 -0.26518,0.13378 -0.52721,0.38522 -0.58229,0.55875 -0.0551,0.17353 -0.25598,0.36498 -0.44646,0.42543 -0.19047,0.0605 -0.30078,0.18358 -0.24515,0.27361 0.0556,0.09 -0.0129,0.16369 -0.15222,0.16369 -0.13938,0 -0.35149,0.11818 -0.47138,0.26264 -0.11988,0.14445 -0.28744,0.2197 -0.37236,0.16722 -0.0849,-0.0525 -0.11146,0.0164 -0.059,0.15313 0.0611,0.15922 -0.0995,0.32923 -0.44678,0.4731 -0.29818,0.12351 -0.5924,0.30587 -0.65382,0.40524 -0.0688,0.11135 -0.0231,0.12592 0.11924,0.038 0.15279,-0.0944 0.18832,-0.0738 0.10504,0.0609 -0.0692,0.112 -0.20055,0.20364 -0.29183,0.20364 -0.0913,0 -0.31281,0.13891 -0.49225,0.30868 -0.59143,0.55955 -1.0864,0.92605 -1.25065,0.92605 -0.089,0 -0.29272,0.13094 -0.45276,0.29097 -0.27037,0.27038 -0.28688,0.26725 -0.23308,-0.0441 z m -0.26098,-2.72853 c -0.049,-0.18731 -0.0246,-0.34057 0.0543,-0.34057 0.0789,0 0.0986,-0.17116 0.0439,-0.38036 -0.0722,-0.27592 -0.0386,-0.34273 0.12229,-0.2433 0.17424,0.10768 0.17886,0.0569 0.0216,-0.237 -0.16915,-0.31606 -0.15136,-0.37448 0.11469,-0.37676 0.21611,-0.002 0.2476,-0.0455 0.10037,-0.13902 -0.16814,-0.10684 -0.16724,-0.23024 0.004,-0.57057 0.1203,-0.23883 0.20793,-0.61076 0.19473,-0.82651 -0.0132,-0.21574 0.0433,-0.3507 0.12543,-0.29991 0.0822,0.0508 0.10187,-0.14547 0.0438,-0.43614 -0.0911,-0.45556 -0.0555,-0.5247 0.25823,-0.50107 0.27624,0.0208 0.3184,0.0823 0.17496,0.25514 -0.13658,0.16455 -0.12185,0.31051 0.0531,0.52616 0.17863,0.22023 0.18244,0.26259 0.0145,0.16161 -0.17089,-0.10276 -0.20027,-0.0281 -0.11801,0.29968 0.0616,0.24533 0.0248,0.4889 -0.084,0.55613 -0.10645,0.0658 -0.1424,0.20239 -0.0799,0.30355 0.0625,0.10116 0.004,0.25321 -0.12941,0.33789 -0.20529,0.13003 -0.20544,0.15439 -0.002,0.15667 0.19426,0.002 0.19907,0.0545 0.0244,0.26504 -0.11975,0.14428 -0.1653,0.39899 -0.1012,0.56601 0.0771,0.20092 -0.0207,0.41576 -0.28894,0.63491 -0.22301,0.18218 -0.30626,0.27998 -0.185,0.21733 0.12127,-0.0627 0.22049,-0.0383 0.22049,0.054 0,0.33994 -0.49525,0.35443 -0.58346,0.0171 z m -42.23495,-2.57701 c -0.32954,-0.12856 -0.26689,-0.37214 0.15358,-0.59717 0.21911,-0.11727 0.32826,-0.12608 0.26349,-0.0213 -0.17518,0.28345 0.30384,0.36433 0.60609,0.10235 0.36066,-0.31263 2.92288,-0.56607 2.74058,-0.27109 -0.0704,0.11394 -0.22178,0.15453 -0.33634,0.0902 -0.14046,-0.0789 -0.13649,-0.0396 0.0122,0.1206 0.12127,0.13065 0.22049,0.28413 0.22049,0.34106 0,0.0569 -0.57547,0.12307 -1.27882,0.14697 -0.70335,0.0239 -1.47726,0.0729 -1.71979,0.10892 -0.24254,0.036 -0.5402,0.0267 -0.66146,-0.0206 z m 16.53842,-1.64776 c 0.1049,-0.19603 0.14609,-0.42868 0.0915,-0.51698 -0.0546,-0.0883 -0.0186,-0.21041 0.08,-0.27135 0.0986,-0.0609 0.18939,-0.007 0.20177,0.1201 0.0123,0.127 0.0412,0.40949 0.0641,0.62778 0.0301,0.28682 -0.0513,0.39687 -0.2933,0.39687 -0.2814,0 -0.30443,-0.057 -0.14415,-0.35642 z m 12.43222,-0.45242 c 0.0769,-0.28274 0.14433,-0.68975 0.14988,-0.90446 0.0101,-0.3863 0.51993,-0.5028 0.58944,-0.13467 0.0179,0.0947 -0.10116,0.15046 -0.26458,0.12379 -0.26967,-0.044 -0.26884,-0.0311 0.009,0.13961 0.29078,0.17869 0.38286,1.0554 0.11083,1.0554 -0.0679,0 -0.26093,0.0527 -0.42891,0.1172 -0.26354,0.10113 -0.28624,0.0467 -0.16565,-0.39687 z m 14.28398,0.0956 c -0.0574,-0.0928 0.0242,-0.16868 0.18115,-0.16868 0.17081,0 0.23488,-0.0818 0.15954,-0.20365 -0.078,-0.12617 -0.0484,-0.15576 0.0778,-0.0778 0.11201,0.0692 0.20364,0.19206 0.20364,0.27297 0,0.22487 -0.50394,0.36837 -0.62212,0.17714 z m -47.23103,-0.80841 c -0.13726,-0.13726 0.0758,-0.77138 0.25913,-0.77138 0.0914,0 0.10884,0.0929 0.0387,0.20636 -0.085,0.13745 -0.0325,0.1699 0.157,0.0972 0.19446,-0.0746 0.25514,-0.0326 0.19168,0.13277 -0.10093,0.26303 -0.50772,0.47385 -0.6465,0.33507 z m 12.49938,-0.0461 c -0.0532,-0.0862 0.13859,-0.19118 0.4263,-0.23341 0.41863,-0.0614 0.4844,-0.0302 0.32937,0.15663 -0.22195,0.26743 -0.61327,0.30719 -0.75567,0.0768 z m 21.90412,0.0245 c -0.16978,-0.0386 -0.30868,-0.14365 -0.30868,-0.23355 0,-0.18946 0.13202,-0.19057 0.60565,-0.005 0.39486,0.15463 0.16092,0.34263 -0.29697,0.23865 z m -1.08183,-0.8479 c -0.15256,-0.39755 -0.14125,-0.43105 0.14538,-0.43105 0.37174,0 0.48456,0.28205 0.20546,0.51368 -0.18638,0.15467 -0.26707,0.13566 -0.35084,-0.0826 z m -33.03472,-0.31346 c 0,-0.12935 0.10457,-0.23518 0.23238,-0.23518 0.17366,0 0.18306,0.0594 0.0372,0.23518 -0.10735,0.12935 -0.21193,0.23519 -0.23238,0.23519 -0.0205,0 -0.0372,-0.10584 -0.0372,-0.23519 z m 33.19176,-0.46835 c -0.0618,-0.1 0.009,-0.12956 0.16598,-0.0693 0.30558,0.11726 0.36147,0.24369 0.10776,0.24369 -0.0913,0 -0.21447,-0.0785 -0.27374,-0.17437 z m -28.09118,-0.49234 c -0.21829,-0.0349 -0.39688,-0.15311 -0.39688,-0.26278 0,-0.14146 -0.0615,-0.13789 -0.21167,0.0123 -0.29397,0.29397 -1.44129,0.28597 -1.26419,-0.009 0.10425,-0.17352 0.0766,-0.17528 -0.13001,-0.008 -0.23728,0.19187 -1.13364,0.26363 -0.94573,0.0757 0.0435,-0.0435 -0.009,-0.18562 -0.11736,-0.31582 -0.23487,-0.28299 -0.0804,-0.30456 0.3875,-0.0541 0.24302,0.13006 0.34118,0.1257 0.34118,-0.0152 0,-0.13801 0.60797,-0.17987 2.01197,-0.1385 1.10657,0.0326 1.97012,-0.008 1.91898,-0.0906 -0.0511,-0.0824 0.0555,-0.0729 0.237,0.0212 0.18149,0.0941 0.45863,0.15022 0.6159,0.12474 0.17256,-0.028 0.27746,0.0685 0.26458,0.24339 -0.0236,0.32094 -1.00506,0.57909 -1.19302,0.3138 -0.0677,-0.0955 -0.31638,-0.0943 -0.61737,0.003 -0.27721,0.0897 -0.6826,0.13464 -0.90088,0.0998 z m -1.34957,-7.93225 c 0.0669,-0.3638 0.19458,-0.70893 0.28374,-0.76696 0.0892,-0.058 0.20394,-0.37553 0.25505,-0.70556 0.0511,-0.33002 0.16516,-0.62651 0.25342,-0.65884 0.0883,-0.0323 0.16048,-0.19506 0.16048,-0.3616 0,-0.16654 0.0952,-0.39805 0.21167,-0.51447 0.11641,-0.11642 0.14638,-0.21167 0.0666,-0.21167 -0.0798,0 -0.0494,-0.11527 0.0675,-0.25616 0.11692,-0.14088 0.23578,-0.46741 0.26412,-0.72561 0.0284,-0.2582 0.16068,-0.53859 0.29408,-0.62308 0.13339,-0.0845 0.18022,-0.15485 0.10404,-0.15633 -0.0762,-0.001 -0.0395,-0.1813 0.0816,-0.39958 0.12104,-0.21828 0.20212,-0.45962 0.1802,-0.53631 -0.0219,-0.0767 0.0576,-0.31482 0.17677,-0.52917 0.11914,-0.21435 0.2301,-0.42942 0.2466,-0.47792 0.0164,-0.0485 0.0879,-0.2659 0.15859,-0.48309 0.0707,-0.21719 0.19806,-0.35197 0.28292,-0.29952 0.0849,0.0525 0.10683,-0.0284 0.0488,-0.17973 -0.0581,-0.15131 0.024,-0.47293 0.18247,-0.71472 0.15844,-0.24178 0.23135,-0.43961 0.16207,-0.43961 -0.0693,0 0.0281,-0.12495 0.21643,-0.27766 0.18831,-0.15272 0.22332,-0.22605 0.0778,-0.16295 -0.14552,0.0631 -0.0772,-0.0501 0.15184,-0.25151 0.22902,-0.20142 0.31852,-0.36621 0.19888,-0.36621 -0.17073,0 -0.1699,-0.0574 0.004,-0.26676 0.15312,-0.18449 0.28718,-0.21216 0.43471,-0.0897 0.11731,0.0974 0.27827,0.1182 0.35764,0.0463 0.0794,-0.0719 0.0864,-0.0302 0.0157,0.0926 -0.0708,0.12285 -0.22239,0.16714 -0.33695,0.0984 -0.11866,-0.0712 -0.10413,0.003 0.0338,0.17351 0.17076,0.21051 0.18069,0.29845 0.0337,0.29845 -0.11462,0 -0.15934,0.0794 -0.0994,0.17638 0.06,0.097 0.0183,0.17639 -0.0925,0.17639 -0.11083,0 -0.16768,0.0992 -0.12633,0.22049 0.0413,0.12127 -0.11081,0.51656 -0.33809,0.87844 -0.22727,0.36187 -0.41324,0.7804 -0.41324,0.93007 0,0.30611 -1.03916,2.90653 -1.26504,3.16566 -0.0804,0.0922 -0.14607,0.31044 -0.14607,0.48507 0,0.17462 -0.0841,0.3175 -0.1868,0.3175 -0.10274,0 -0.13913,0.0771 -0.0809,0.1714 0.0583,0.0943 -0.0233,0.3686 -0.18118,0.60961 -0.15791,0.24101 -0.23907,0.51594 -0.18034,0.61096 0.0587,0.095 -0.0525,0.45628 -0.24709,0.8028 -0.19462,0.34651 -0.35857,0.66785 -0.36434,0.71408 -0.0706,0.56663 -0.43773,1.14809 -0.72491,1.14809 -0.30098,0 -0.32845,-0.0819 -0.22188,-0.66146 z m 8.03137,-1.16276 c -0.10805,-0.13019 -0.14423,-0.28894 -0.0804,-0.35277 0.0638,-0.0638 0.0433,-0.1162 -0.0456,-0.11635 -0.0889,-1.6e-4 -0.18119,-0.49626 -0.205,-1.10244 -0.0238,-0.60617 -0.0658,-1.43948 -0.0932,-1.85179 -0.0285,-0.42718 0.0281,-0.75081 0.13148,-0.75235 0.11976,-0.002 0.12146,-0.0468 0.005,-0.13229 -0.27952,-0.20536 -0.31242,-0.91712 -0.057,-1.2323 0.16933,-0.20893 0.17286,-0.25159 0.0129,-0.15547 -0.12127,0.0729 -0.22049,0.0484 -0.22049,-0.0543 0,-0.10274 0.0992,-0.18802 0.22049,-0.1895 0.13712,-0.002 0.15356,-0.0517 0.0435,-0.13229 -0.23767,-0.17398 -0.33489,-1.09973 -0.1155,-1.09973 0.10763,0 0.0966,-0.20426 -0.0291,-0.53711 -0.16611,-0.44008 -0.15538,-0.56704 0.0594,-0.70285 0.42919,-0.27137 0.55201,-0.19521 0.33603,0.20837 -0.16403,0.3065 -0.15674,0.36178 0.0379,0.28732 0.18241,-0.0698 0.25218,0.14096 0.28699,0.86678 0.0352,0.7332 -0.006,0.92752 -0.17639,0.82534 -0.17837,-0.10718 -0.17828,-0.0792 0,0.14157 0.19526,0.24121 0.23115,0.59959 0.21766,2.17377 -0.002,0.19403 0.01,0.63059 0.0256,0.97014 0.0157,0.33955 0.0321,0.91643 0.0365,1.28195 0.01,0.81981 0.26122,0.76828 0.73117,-0.14977 0.19459,-0.38017 0.41385,-0.71783 0.48721,-0.75037 0.0734,-0.0325 0.0885,-0.13176 0.0337,-0.22049 -0.0548,-0.0887 -0.002,-0.16132 0.11648,-0.16132 0.11892,0 0.16434,-0.0519 0.10095,-0.11525 -0.0634,-0.0634 0.0515,-0.38507 0.25531,-0.71484 0.20381,-0.32977 0.32326,-0.64687 0.26546,-0.70468 -0.0578,-0.0578 0.0555,-0.24437 0.25171,-0.41458 0.26007,-0.22555 0.29506,-0.33425 0.12908,-0.40086 -0.17438,-0.07 -0.17609,-0.0947 -0.007,-0.10531 0.12126,-0.008 0.22048,-0.12079 0.22048,-0.25141 0,-0.30528 0.5004,-1.31141 0.7196,-1.44689 0.0925,-0.0571 0.1221,-0.17834 0.0658,-0.26934 -0.0562,-0.091 0.0264,-0.21481 0.18365,-0.27515 0.15725,-0.0603 0.24414,-0.21853 0.19311,-0.35153 -0.0537,-0.13981 0.0209,-0.24183 0.17666,-0.24183 0.1482,0 0.22219,-0.0765 0.16441,-0.16995 -0.0578,-0.0935 0.0566,-0.3316 0.25417,-0.52917 0.19758,-0.19757 0.35922,-0.47827 0.35922,-0.62379 0,-0.14552 0.16251,-0.44318 0.36112,-0.66146 0.58489,-0.64278 0.92987,-1.0398 1.90788,-2.19568 0.62535,-0.73909 1.01243,-1.0597 1.19487,-0.98969 0.18602,0.0714 0.20758,0.14206 0.0694,0.22747 -0.11027,0.0682 -0.17646,0.20721 -0.14709,0.30903 0.0294,0.10182 -0.13733,0.35251 -0.37045,0.5571 -0.23313,0.20459 -0.37276,0.37198 -0.31028,0.37198 0.0624,0 -0.12282,0.2259 -0.41175,0.50201 -0.28891,0.27611 -0.47637,0.55095 -0.41656,0.61076 0.0598,0.0598 -0.0975,0.20269 -0.3495,0.31753 -0.25202,0.11483 -0.41326,0.28155 -0.35829,0.37049 0.055,0.0889 -0.0173,0.29562 -0.16064,0.45928 -0.14334,0.16366 -0.39127,0.55553 -0.55099,0.87083 -0.1597,0.31529 -0.39998,0.57326 -0.53393,0.57326 -0.15668,0 -0.21064,0.1258 -0.15127,0.35278 0.0516,0.19724 0.005,0.35278 -0.10472,0.35278 -0.10832,0 -0.19696,0.1071 -0.19696,0.238 0,0.30471 -1.23592,2.65318 -1.43755,2.73158 -0.0837,0.0325 -0.10513,0.13523 -0.0477,0.22821 0.0575,0.093 0.008,0.28464 -0.10871,0.42591 -0.11723,0.14127 -0.15144,0.25685 -0.076,0.25685 0.0754,0 -0.007,0.15875 -0.18212,0.35278 -0.17559,0.19403 -0.24742,0.354 -0.15963,0.35548 0.0878,0.001 0.0551,0.069 -0.0726,0.14995 -0.12772,0.081 -0.25026,0.2702 -0.2723,0.42048 -0.0221,0.15027 -0.14556,0.40029 -0.27447,0.5556 -0.12888,0.15531 -0.18044,0.28238 -0.11458,0.28238 0.0659,0 -0.0209,0.23813 -0.19283,0.52917 -0.17192,0.29104 -0.43437,0.53038 -0.58323,0.53186 -0.20637,0.002 -0.2171,0.0367 -0.0451,0.1458 0.16321,0.10357 0.10001,0.20026 -0.2288,0.35008 -0.56042,0.25534 -0.52974,0.25653 -0.76732,-0.0297 z m 12.76507,-3.25134 c -0.82478,-0.19201 -1.05726,-0.53233 -1.0837,-1.58642 -0.0179,-0.7118 0.0604,-1.11125 0.26459,-1.34994 0.15947,-0.18645 0.20246,-0.28823 0.0955,-0.22618 -0.1227,0.0712 -0.0987,-0.1779 0.065,-0.67523 0.1427,-0.43343 0.3341,-0.78806 0.42534,-0.78806 0.0912,0 0.12614,-0.0643 0.0776,-0.14289 -0.1548,-0.25046 0.94193,-2.35201 1.1578,-2.21859 0.12167,0.0752 0.14996,0.0437 0.0728,-0.081 -0.0774,-0.12527 0.0652,-0.2794 0.36962,-0.39946 0.44621,-0.17597 0.46165,-0.20811 0.15462,-0.32202 -0.23209,-0.0861 -0.27481,-0.16749 -0.13368,-0.2547 0.11405,-0.0705 0.33776,-0.0552 0.49713,0.034 0.26067,0.14588 0.2513,0.2006 -0.0932,0.54514 -0.21064,0.21065 -0.33983,0.45281 -0.28711,0.53813 0.0528,0.0853 -0.16264,0.41557 -0.47863,0.73387 -0.31598,0.3183 -0.47529,0.51873 -0.35403,0.44538 0.26168,-0.15826 0.27122,-0.0925 0.0652,0.44925 -0.0854,0.2246 -0.14492,0.46447 -0.13229,0.53306 0.0127,0.0686 -0.12806,0.23513 -0.31267,0.37011 -0.18459,0.13498 -0.28434,0.3284 -0.22165,0.42983 0.0627,0.10142 -0.0193,0.4905 -0.18221,0.86461 -0.16289,0.3741 -0.27724,0.75229 -0.2541,0.84042 0.0231,0.0881 -0.0613,0.22581 -0.18772,0.30598 -0.16136,0.10234 -0.16714,0.14655 -0.0194,0.14845 0.11569,0.001 0.18083,0.156 0.14474,0.34336 -0.17215,0.894 1.82743,1.07974 3.41981,0.31766 0.49195,-0.23544 0.84265,-0.47988 0.77932,-0.54319 -0.0633,-0.0633 -0.0347,-0.11513 0.0637,-0.11513 0.22511,0 1.04958,-0.70362 0.83303,-0.71092 -0.0876,-0.003 -0.0204,-0.0863 0.1494,-0.18515 0.16978,-0.0989 0.30868,-0.27581 0.30868,-0.39318 0,-0.11736 0.15653,-0.31114 0.34786,-0.43062 0.20394,-0.12737 0.30559,-0.32735 0.24571,-0.4834 -0.0562,-0.1464 -0.01,-0.26617 0.10352,-0.26617 0.11312,0 0.16542,-0.0651 0.11621,-0.14475 -0.0492,-0.0796 0.0812,-0.41696 0.28989,-0.74966 0.20863,-0.33269 0.38594,-0.64458 0.39398,-0.69309 0.008,-0.0485 0.10825,-0.25635 0.22268,-0.46188 0.1144,-0.20552 0.1579,-0.42381 0.0966,-0.48507 -0.0613,-0.0613 -0.0188,-0.11138 0.0944,-0.11138 0.11319,0 0.20579,-0.16344 0.20579,-0.36319 0,-0.19976 0.0659,-0.3225 0.14631,-0.27277 0.0805,0.0497 0.13071,-0.0845 0.11166,-0.29827 -0.0191,-0.21378 0.079,-0.51972 0.21794,-0.67986 0.17047,-0.19647 0.19137,-0.32903 0.0643,-0.40758 -0.1256,-0.0776 -0.1315,-0.22263 -0.0177,-0.43529 0.0939,-0.17539 0.12245,-0.36709 0.0635,-0.42601 -0.0589,-0.0589 -0.0252,-0.20826 0.075,-0.33187 0.30754,-0.37946 0.16378,-1.08093 -0.26536,-1.2948 -0.47579,-0.23712 -1.34357,-0.19621 -2.07139,0.0977 -0.29104,0.11751 -0.61028,0.22762 -0.70941,0.24468 -0.23476,0.0404 -1.51995,0.984 -1.80413,1.32461 -0.12126,0.14535 -0.22048,0.19969 -0.22048,0.12076 0,-0.0789 -0.11199,-0.0505 -0.24889,0.0631 -0.14889,0.12356 -0.29021,0.13967 -0.35175,0.0401 -0.0566,-0.0916 0.0157,-0.21198 0.16067,-0.26761 0.37179,-0.14267 0.32981,-0.47475 -0.0451,-0.35686 -0.26356,0.0829 -0.25864,0.0563 0.0337,-0.18193 0.18833,-0.15344 0.2677,-0.27928 0.17638,-0.27964 -0.29215,-0.001 1.01839,-0.72967 1.35875,-0.75531 0.18004,-0.0136 0.32734,-0.0871 0.32734,-0.16351 0,-0.0764 0.18995,-0.13885 0.4221,-0.13885 0.23216,0 0.46778,-0.11907 0.52362,-0.26459 0.0558,-0.14552 0.22778,-0.26458 0.38206,-0.26458 0.17749,0 0.23188,0.081 0.14808,0.22048 -0.10209,0.16992 -0.0741,0.17412 0.12187,0.0183 0.30713,-0.2441 1.61348,-0.44011 1.4786,-0.22185 -0.0524,0.0848 0.13142,0.10878 0.40846,0.0534 0.35833,-0.0717 0.57723,-0.0102 0.75842,0.21291 0.22359,0.27534 0.22239,0.2946 -0.01,0.15773 -0.22491,-0.13254 -0.22969,-0.11287 -0.0319,0.13122 0.26951,0.33254 0.42351,1.54448 0.19627,1.54448 -0.0843,0 -0.10262,0.13208 -0.0407,0.29351 0.0686,0.17885 0.0417,0.2497 -0.0689,0.18135 -0.11502,-0.0711 -0.15748,0.10578 -0.11592,0.48286 0.036,0.32726 -0.0303,0.82113 -0.14753,1.09747 -0.1172,0.27635 -0.2249,0.58182 -0.23933,0.67883 -0.0925,0.62231 -1.01993,2.54339 -1.18006,2.44442 -0.0725,-0.0448 -0.0885,0.0315 -0.0355,0.16949 0.0532,0.13871 -0.0348,0.30129 -0.19671,0.36343 -0.16117,0.0618 -0.25093,0.22213 -0.19948,0.35619 0.0514,0.13406 -0.0625,0.41121 -0.25315,0.61588 -0.19068,0.20466 -0.28626,0.37212 -0.21237,0.37212 0.0739,0 -0.0434,0.12449 -0.26067,0.27665 -0.21724,0.15216 -0.34929,0.3506 -0.29342,0.44098 0.0558,0.0904 0.0228,0.16432 -0.0734,0.16432 -0.0962,0 -0.22402,0.1547 -0.28402,0.34377 -0.0733,0.231 -0.20742,0.30858 -0.40877,0.23648 -0.1648,-0.059 -0.2408,-0.0424 -0.16889,0.0369 0.19528,0.2153 -0.20879,0.61562 -0.63742,0.63152 -0.21226,0.008 -0.27409,0.0544 -0.14231,0.10706 0.31373,0.12541 -0.57785,0.58457 -1.13508,0.58457 -0.23144,0 -0.42081,0.0656 -0.42081,0.14567 0,0.15562 -1.61704,0.20729 -2.20486,0.0704 z m 16.17959,-0.75229 c -0.31962,-0.12836 -0.36555,-0.22452 -0.2264,-0.47388 0.096,-0.17207 0.3858,-0.86848 0.64395,-1.54758 0.25814,-0.67909 0.61797,-1.39858 0.79964,-1.59886 0.18166,-0.20028 0.3303,-0.49227 0.3303,-0.64886 0,-0.1566 0.12413,-0.40884 0.27584,-0.56055 0.15169,-0.1517 0.23218,-0.34643 0.17884,-0.43273 -0.0533,-0.0863 0.1599,-0.29122 0.47383,-0.45537 0.40409,-0.2113 0.45278,-0.27317 0.16667,-0.21185 -0.34704,0.0744 -0.38754,0.0326 -0.28677,-0.29563 0.16085,-0.52393 0.20442,-0.55142 0.4935,-0.31149 0.32562,0.27023 0.25688,0.70793 -0.15892,1.01197 -0.18066,0.1321 -0.2321,0.24018 -0.1143,0.24018 0.14802,0 0.12493,0.13618 -0.0748,0.44097 -0.1589,0.24254 -0.23701,0.44097 -0.17358,0.44097 0.0634,0 -0.0437,0.17078 -0.2382,0.37949 -0.19445,0.20873 -0.31587,0.44045 -0.26982,0.51495 0.046,0.0745 -0.0323,0.25147 -0.17409,0.39326 -0.1418,0.1418 -0.21059,0.30503 -0.15288,0.36274 0.0577,0.0577 0.005,0.22591 -0.11818,0.37377 -0.12273,0.14787 -0.16401,0.26885 -0.0917,0.26885 0.0723,0 0.0224,0.13126 -0.1107,0.29169 -0.13314,0.16044 -0.21574,0.29934 -0.18355,0.30868 0.13776,0.04 -0.20061,0.98713 -0.35264,0.98713 -0.0922,0 -0.11862,0.0794 -0.0587,0.17639 0.06,0.097 0.0203,0.17639 -0.0882,0.17639 -0.10846,0 -0.14815,0.0794 -0.0882,0.17639 0.12648,0.20466 0.12606,0.20465 -0.40097,-0.007 z m -93.173338,-2.22464 c -3.87274,-0.58794 -7.868371,-2.86387 -10.387966,-5.91703 -2.038202,-2.46983 -3.765392,-5.91412 -4.319567,-8.6139 -0.14999,-0.73071 -0.326603,-2.40244 -0.392472,-3.71496 -0.141513,-2.81977 0.07342,-4.60587 0.847078,-7.03912 1.500249,-4.7185 5.92256,-11.20665 9.090301,-13.33676 0.559619,-0.37631 1.334987,-0.9355 1.723043,-1.24265 0.909415,-0.71982 3.081634,-1.8711 4.321528,-2.29042 1.207999,-0.40853 5.816825,-0.45957 7.496527,-0.083 4.366798,0.97893 12.430695,4.2564 15.610417,6.34465 2.359735,1.54974 6.171912,5.85409 7.385208,8.33869 1.306058,2.67456 1.031946,6.38095 -0.759462,10.26904 -1.256894,2.72798 -4.27689,6.70821 -6.60261,8.70195 -3.700815,3.17256 -10.098099,6.65828 -14.487025,7.89362 -1.750614,0.49274 -4.454615,0.80325 -6.790972,0.77984 -1.261181,-0.0126 -2.491493,-0.0531 -2.734028,-0.0899 z m 7.761111,-1.54636 c 4.493729,-0.97193 10.449034,-3.96725 14.828573,-7.45827 3.463963,-2.7612 6.956689,-7.86583 7.9412,-11.60607 0.252781,-0.96035 0.375352,-1.97995 0.383701,-3.19181 0.01127,-1.63717 -0.03195,-1.87518 -0.536355,-2.95307 -1.695132,-3.62241 -5.821396,-7.68991 -9.833167,-9.69312 -1.84828,-0.92291 -5.376629,-2.3751 -7.668674,-3.15626 -3.692765,-1.25854 -5.036776,-1.56176 -7.408333,-1.67139 -2.645728,-0.12231 -3.865233,0.0748 -5.55625,0.89817 -1.230486,0.59912 -1.232452,0.60124 -0.573264,0.61523 0.539184,0.0115 0.661458,0.0793 0.661458,0.36683 0,0.21179 -0.117593,0.35278 -0.294232,0.35278 -0.161827,0 -0.804958,0.0889 -1.429181,0.19764 -1.394611,0.24286 -1.87201,0.632 -3.499945,2.85286 -2.241956,3.05853 -2.581012,3.47589 -2.823787,3.47589 -0.328933,0 -0.300755,-0.2969 0.115184,-1.21361 0.553605,-1.22011 -0.01478,-0.59988 -1.515814,1.65408 -2.462376,3.69752 -3.860057,6.97578 -4.320483,10.13369 -0.254455,1.74523 -0.11929,5.28868 0.271968,7.12981 0.70851,3.334 2.97693,7.33503 5.422419,9.56402 2.184139,1.99078 5.084392,3.48581 7.679358,3.95859 1.313369,0.23928 6.638523,0.0721 8.155624,-0.25599 z m 3.099483,-11.4297 c -0.846025,-2.41996 -1.278839,-2.67944 -4.484966,-2.68885 l -2.355623,-0.007 -0.50102,0.59911 c -0.27556,0.3295 -0.599756,0.98435 -0.720432,1.4552 -0.160938,0.62795 -0.304543,0.85611 -0.538844,0.85611 -0.692033,0 -0.287496,-2.26814 0.580953,-3.25725 0.77155,-0.87875 1.455099,-1.04028 3.938319,-0.9307 3.230499,0.14255 4.20092,0.68952 4.784424,2.6967 0.560158,1.92688 -0.07324,3.07738 -0.702811,1.27658 z m -8.737722,-9.29874 c -0.20318,-0.37965 -0.247131,-4.83933 -0.06852,-6.95235 0.09383,-1.11001 0.1675,-1.34953 0.415089,-1.34953 0.378415,0 0.529166,1.51839 0.529166,5.32988 0,2.47379 -0.134062,3.31318 -0.529166,3.31318 -0.09019,0 -0.246146,-0.15353 -0.346573,-0.34118 z m 12.552683,-0.0469 c -0.1499,-0.1499 -0.211666,-1.19789 -0.211666,-3.59135 0,-4.06192 0.100688,-5.01642 0.529166,-5.01642 0.428479,0 0.529167,0.9545 0.529167,5.01642 0,3.21077 -0.08241,3.80302 -0.529167,3.80302 -0.05821,0 -0.201083,-0.0952 -0.3175,-0.21167 z m 49.056643,19.68187 c -0.059,-0.15368 0.004,-0.34956 0.13898,-0.4353 0.20607,-0.13048 0.20307,-0.15677 -0.0184,-0.16129 -0.23156,-0.005 -0.2322,-0.0259 -0.005,-0.1695 0.31604,-0.19986 0.3519,-0.16875 0.45387,0.39356 0.0931,0.51318 -0.39324,0.83139 -0.56933,0.37253 z m -3.01032,-0.71341 c -0.31556,-0.12733 -0.27284,-0.58873 0.0545,-0.58873 0.15125,0 0.23994,-0.0595 0.1971,-0.1323 -0.18398,-0.31246 0.2359,-0.92556 0.62466,-0.91211 0.2214,0.008 0.30284,0.0541 0.18098,0.10326 -0.12189,0.0491 -0.17729,0.16102 -0.12314,0.24864 0.0542,0.0876 -0.0247,0.11203 -0.1753,0.0542 -0.15054,-0.0578 -0.27373,-0.0172 -0.27373,0.0902 0,0.10739 0.0661,0.19526 0.14698,0.19526 0.24649,0 0.1636,0.50761 -0.0994,0.60852 -0.1355,0.052 -0.19697,0.17448 -0.1366,0.27218 0.11565,0.18711 -0.0283,0.20921 -0.39609,0.0608 z m 2.77812,-0.56986 c 0,-0.0866 0.11906,-0.20321 0.26458,-0.25905 0.14553,-0.0558 0.26459,-0.19312 0.26459,-0.30505 0,-0.13854 -0.095,-0.12622 -0.29761,0.0386 -0.26495,0.21552 -0.28172,0.20337 -0.15284,-0.1107 0.0796,-0.19402 0.13854,-0.51152 0.13094,-0.70555 l -0.0138,-0.35278 0.2038,0.35278 c 0.29746,0.51494 0.33854,0.98291 0.11038,1.25783 -0.2271,0.27363 -0.50999,0.32021 -0.50999,0.084 z m 32.61845,-0.41575 c -0.114,-0.37248 -0.0967,-0.66146 0.0395,-0.66146 0.0942,0 0.12771,-0.0703 0.0746,-0.15633 -0.0532,-0.086 0.0553,-0.19607 0.24096,-0.24462 0.25554,-0.0668 0.31179,-0.0181 0.23137,0.20043 -0.0584,0.15879 -0.19138,0.34703 -0.29548,0.41831 -0.12515,0.0857 -0.11104,0.1305 0.0416,0.13229 0.127,0.001 0.18184,0.0821 0.12189,0.17909 -0.0963,0.1558 -0.41856,0.24961 -0.45447,0.13229 z m -34.65886,-1.229 c 0.0301,-0.54119 0.25747,-0.87616 0.49507,-0.72932 0.12991,0.0803 0.1516,0.008 0.0656,-0.21761 -0.1008,-0.26461 -0.0822,-0.29155 0.086,-0.1246 0.16229,0.16106 0.1652,0.27257 0.012,0.4572 -0.11146,0.13431 -0.14383,0.30915 -0.0719,0.38853 0.0719,0.0794 0.0262,0.084 -0.10152,0.0102 -0.16036,-0.0926 -0.21497,-0.0388 -0.17639,0.17391 0.0307,0.16945 -0.0312,0.33874 -0.13766,0.3762 -0.10744,0.0378 -0.18358,-0.11102 -0.17117,-0.33448 z m 17.32707,0.27318 c -0.16976,-0.16976 0.41456,-0.76447 0.74797,-0.76127 0.24606,0.002 0.24816,0.0241 0.0168,0.17369 -0.14552,0.094 -0.19939,0.1722 -0.1197,0.17369 0.0797,0.001 0.0258,0.12176 -0.11968,0.26728 -0.29755,0.29754 -0.35764,0.31431 -0.52535,0.14661 z m 17.8517,-4.83014 c -0.15388,-0.0861 -0.45196,-0.12343 -0.6624,-0.0829 -0.21249,0.0409 -0.33667,-7.1e-4 -0.27929,-0.0935 0.0568,-0.092 -0.0251,-0.16717 -0.18209,-0.16717 -0.15696,0 -0.24064,0.0724 -0.18596,0.1609 0.12001,0.19418 -0.24506,0.15498 -0.59607,-0.064 -0.20832,-0.12996 -0.19278,-0.1813 0.0882,-0.29132 0.53204,-0.20835 1.39531,-0.1801 1.6287,0.0533 0.16463,0.16462 0.21167,0.15957 0.21167,-0.0227 0,-0.17981 0.20895,-0.20667 0.89738,-0.11535 0.49355,0.0655 0.85848,0.0559 0.81095,-0.0214 -0.0475,-0.0772 0.43344,-0.15458 1.06881,-0.1719 0.63539,-0.0173 1.34869,-0.08 1.58508,-0.13936 0.29708,-0.0746 0.39146,-0.0458 0.30558,0.0932 -0.0921,0.14905 -0.0308,0.15104 0.23703,0.008 0.44954,-0.24059 0.92761,-0.0774 0.79391,0.27109 -0.0549,0.14306 -0.20863,0.21836 -0.34163,0.16732 -0.13302,-0.051 -0.24183,-0.0243 -0.24183,0.0594 0,0.0837 -0.17859,0.15334 -0.39688,0.15474 -1.14792,0.007 -4.20701,0.20133 -4.32495,0.27421 -0.075,0.0464 -0.2623,0.0138 -0.4162,-0.0723 z m 6.12634,-0.84332 c -0.05,-0.0808 0.0212,-0.14699 0.15822,-0.14699 0.13698,0 0.20819,0.0661 0.15822,0.14699 -0.05,0.0808 -0.12116,0.14699 -0.15822,0.14699 -0.0371,0 -0.10825,-0.0661 -0.15822,-0.14699 z m 1.95643,-1.98928 c -0.56831,-0.3306 -0.68559,-0.98658 -0.40319,-2.25508 0.14263,-0.6407 0.55446,-3.03021 0.91518,-5.31004 0.36069,-2.27983 0.69201,-4.36342 0.73624,-4.63021 l 0.0804,-0.48507 -2.88634,-0.001 c -5.47435,-0.003 -7.04109,-0.64231 -7.07504,-2.88909 -0.0101,-0.66772 0.19117,-1.11271 1.4563,-3.21962 1.95987,-3.26393 3.93885,-6.08489 4.87234,-6.94535 0.83513,-0.76979 1.42906,-0.88934 1.88967,-0.38037 0.65652,0.72545 0.32258,1.57709 -2.43032,6.19794 -1.21915,2.04639 -2.21665,3.79242 -2.21665,3.88005 0,0.19941 2.91412,0.29951 5.32079,0.18277 l 1.81822,-0.0882 0.1137,-0.61736 c 1.94349,-10.55222 1.87611,-10.31875 2.97785,-10.31875 1.52416,0 1.73692,2.31495 0.70912,7.715 -0.32756,1.72089 -0.55655,3.1679 -0.50889,3.21556 0.0477,0.0477 1.44805,-0.002 3.11198,-0.11056 2.7492,-0.17922 3.06684,-0.17001 3.4804,0.10096 0.71445,0.46813 0.89092,1.12654 0.50027,1.86649 -0.44891,0.85033 -1.02063,0.99727 -4.72948,1.21546 -1.72683,0.1016 -3.16413,0.20916 -3.19399,0.23903 -0.0715,0.0715 -1.43108,8.40862 -1.5751,9.65875 -0.24737,2.14707 -0.90398,3.17913 -2.01655,3.16964 -0.34565,-0.003 -0.77175,-0.0887 -0.94691,-0.19063 z m -46.4246,-0.17682 c -1.02553,-0.58203 -1.02722,-1.40897 -0.0153,-7.56469 0.42258,-2.57087 0.74114,-4.70406 0.70792,-4.74042 -0.0332,-0.0364 -1.39322,0.20176 -3.02226,0.52917 -2.59475,0.52147 -3.29735,0.59528 -5.66695,0.59528 h -2.70498 l -0.42593,-0.49491 c -0.24321,-0.2826 -0.42592,-0.7192 -0.42592,-1.01776 0,-0.65948 1.08148,-2.81746 3.36835,-6.72117 0.98434,-1.68028 2.29639,-4.08693 2.91567,-5.34811 0.61928,-1.26118 1.29314,-2.43196 1.49746,-2.60173 0.90225,-0.74971 1.74352,-0.0952 1.74352,1.3565 0,1.68305 -1.00643,4.04333 -3.6147,8.47718 -0.79897,1.35819 -1.55221,2.66033 -1.67385,2.89365 l -0.22117,0.4242 1.21145,-0.10787 c 1.3124,-0.11686 7.24955,-1.25178 7.41523,-1.41746 0.0999,-0.0999 0.19287,-0.98009 0.58043,-5.49669 0.34736,-4.04808 0.83864,-5.36805 1.8951,-5.09177 0.9794,0.25611 1.35564,2.98358 1.03241,7.48423 -0.10529,1.46597 -0.15067,2.68634 -0.10088,2.71193 0.13524,0.0695 4.6809,-0.39386 5.99959,-0.61155 2.56032,-0.42266 2.40714,-0.42604 2.89701,0.0638 0.57095,0.57096 0.62445,1.63246 0.11008,2.18457 -0.59787,0.64172 -1.74835,0.86865 -6.84886,1.35091 -1.38538,0.13099 -2.54884,0.26884 -2.58547,0.30634 -0.0602,0.0616 -0.87343,4.98614 -1.68152,10.18221 -0.33792,2.17298 -0.56665,2.59241 -1.50505,2.75997 -0.29071,0.0519 -0.6873,0.004 -0.88133,-0.10584 z m 18.8383,-0.83759 c -2.52561,-0.87268 -4.38766,-3.20164 -4.83278,-6.0446 -0.26206,-1.67371 -0.10952,-5.96108 0.27845,-7.82625 0.68912,-3.31306 2.90534,-7.542 4.92973,-9.40678 0.45601,-0.42005 1.43914,-1.05505 2.18478,-1.41111 1.32923,-0.63475 1.39528,-0.64704 3.38416,-0.62942 4.67695,0.0414 7.74031,1.77281 8.86276,5.00912 0.34871,1.00542 0.39633,1.483 0.38691,3.88055 -0.0122,3.11177 -0.31946,4.71491 -1.41211,7.36892 -2.18679,5.31159 -5.2501,8.55368 -8.70025,9.20798 -1.51826,0.28794 -4.03122,0.21454 -5.08165,-0.14841 z m 5.83205,-3.37287 c 1.54361,-0.78837 3.24894,-2.97021 4.62784,-5.92098 1.28457,-2.74891 1.55678,-3.9754 1.5638,-7.04644 0.005,-2.41835 -0.0291,-2.7173 -0.40333,-3.47703 -0.68739,-1.39562 -2.53127,-2.21837 -5.32325,-2.37524 -1.59437,-0.0896 -1.70564,-0.0722 -2.29305,0.35844 -0.33955,0.24892 -0.91927,0.6183 -1.28826,0.82084 -1.24361,0.68263 -3.30845,4.33989 -4.08232,7.23063 -0.40072,1.49691 -0.58625,6.5003 -0.28589,7.70996 0.28031,1.1289 0.98633,2.11932 1.9523,2.73869 0.76971,0.49355 0.85251,0.5073 2.73403,0.45411 1.65197,-0.0467 2.06775,-0.11995 2.79813,-0.49298 z"
       id="path2259" />
  </g>
</svg>
